<?xml version="1.0" encoding="iso-8859-1"?>
<!-- Generator: Adobe Illustrator 16.0.0, SVG Export Plug-In . SVG Version: 6.00 Build 0)  -->
<!DOCTYPE svg PUBLIC "-//W3C//DTD SVG 1.1//EN" "http://www.w3.org/Graphics/SVG/1.1/DTD/svg11.dtd">
<svg version="1.1" id="Capa_1" xmlns="http://www.w3.org/2000/svg" xmlns:xlink="http://www.w3.org/1999/xlink" x="0px" y="0px"
	 width="303.248px" height="303.249px" viewBox="0 0 303.248 303.249" style="enable-background:new 0 0 303.248 303.249;"
	 xml:space="preserve">
<g>
	<path d="M297.992,7.849H27.995c-2.903,0-5.256,2.354-5.256,5.256v64.241c0,2.902,2.353,5.256,5.256,5.256h269.997
		c2.905,0,5.256-2.354,5.256-5.256V13.105C303.248,10.204,300.897,7.849,297.992,7.849z M292.735,72.09H33.252V18.362h259.483V72.09
		z"/>
	<path d="M157.734,170.775h-18.902c-2.903,0-5.256,2.354-5.256,5.256v114.112c0,2.898,2.353,5.256,5.256,5.256h46.896
		c2.905,0,5.257-2.357,5.257-5.256V176.031c0-2.901-2.352-5.256-5.257-5.256h-17.48v-22.768c0-2.229-1.403-4.216-3.508-4.955
		L10.513,88.615v-43.39c0-2.902-2.351-5.256-5.256-5.256S0,42.324,0,45.226v47.108c0,2.229,1.405,4.216,3.508,4.955l154.227,54.435
		V170.775z M180.475,284.886h-36.381V181.288h36.381V284.886z"/>
</g>
<g>
</g>
<g>
</g>
<g>
</g>
<g>
</g>
<g>
</g>
<g>
</g>
<g>
</g>
<g>
</g>
<g>
</g>
<g>
</g>
<g>
</g>
<g>
</g>
<g>
</g>
<g>
</g>
<g>
</g>
</svg>
